<svg xmlns="http://www.w3.org/2000/svg" width="47.068" height="44.82" viewBox="0 0 47.068 44.82">
    <g data-name="btn_10sec next">
        <text data-name="10" transform="translate(22.167 27.594)" style="fill:#404040;font-size:16px;font-family:NotoSansCJKkr-Black,Noto Sans CJK KR;font-weight:800;letter-spacing:-.02em"><tspan x="-9.584" y="0">10</tspan></text>
        <path data-name="패스 666" d="M22.41 0a22.442 22.442 0 0 1 22.246 19.7l1.668-.137a.688.688 0 0 1 .65 1.032l-2.212 3.783a.687.687 0 0 1-1.122.093l-2.8-3.37a.688.688 0 0 1 .472-1.125l1.832-.151A20.893 20.893 0 1 0 22.41 43.3a.759.759 0 1 1 0 1.517A22.41 22.41 0 1 1 22.41 0" style="fill:#cbcbcb"/>
    </g>
</svg>
