<svg xmlns="http://www.w3.org/2000/svg" width="37.66" height="28.807" viewBox="0 0 37.66 28.807">
    <g data-name="그룹 2710">
        <path data-name="패스 709" d="M37.32 36.118h-3.91v-1.694h4.076a9.01 9.01 0 0 0 9-9v-.631a9 9 0 0 0-6.136-8.533v-1.74a11.016 11.016 0 0 1 7.97 10.58v.019a11 11 0 0 1-11 11z" transform="translate(-10.66 -10.849)" style="fill:#a4727e"/>
        <path data-name="패스 679" d="M54.1 1001.411a.914.914 0 0 1-.644-.264l-4.172-4.116 4.172-4.116a.917.917 0 1 1 1.287 1.3L51.9 997.03l2.849 2.811a.916.916 0 0 1-.644 1.569z" transform="translate(-28.959 -972.603)" style="fill:#a4727e"/>
    </g>
    <g data-name="그룹 2709">
        <path data-name="패스 710" d="M44.41 14.52h3.909v1.694h-4.075a9.01 9.01 0 0 0-9 9v.631a9 9 0 0 0 6.137 8.533v1.741a11.016 11.016 0 0 1-7.97-10.579v-.019a11 11 0 0 1 11-11z" transform="translate(-33.411 -10.85)" style="fill:#a4727e"/>
        <path data-name="패스 679" d="M50.2 992.65a.914.914 0 0 1 .644.264l4.171 4.116-4.171 4.116a.916.916 0 1 1-1.287-1.3l2.849-2.811-2.849-2.811a.916.916 0 0 1 .644-1.569z" transform="translate(-37.69 -992.519)" style="fill:#a4727e"/>
    </g>
    <path data-name="패스 712" d="M-.753-4.246A58.63 58.63 0 0 0-.06-6.908h.055c.231.88.451 1.815.7 2.662l.242.891H-1zM-3.569 0h1.65l.572-2.09h2.64L1.865 0h1.7L.952-8.151H-.963z" transform="translate(21.34 8.151)" style="fill:#a4727e"/>
    <path data-name="패스 711" d="M-2.745 0h2.9c1.797 0 3.162-.759 3.162-2.4a1.851 1.851 0 0 0-1.53-1.923v-.055A1.847 1.847 0 0 0 2.9-6.138c0-1.518-1.278-2.013-2.95-2.013h-2.695zm1.628-4.829V-6.9h.968c.979 0 1.463.286 1.463 1 0 .649-.451 1.067-1.485 1.067zm0 3.575V-3.63H.016c1.122 0 1.716.341 1.716 1.133 0 .847-.605 1.243-1.716 1.243z" transform="translate(16.024 28.807)" style="fill:#a4727e"/>
</svg>
